<?xml version="1.0" standalone="no"?>
<!DOCTYPE svg PUBLIC "-//W3C//DTD SVG 1.1//EN" "http://www.w3.org/Graphics/SVG/1.1/DTD/svg11.dtd" >
<svg xmlns="http://www.w3.org/2000/svg">
<metadata>
This is a custom SVG webfont generated by Font Squirrel.
Copyright   : Copyright c 2011 by atipo All rights reserved
Designer    : atipo
Foundry     : atipo
</metadata>
<defs>
<font id="CassannetRegular" horiz-adv-x="1107" >
<font-face units-per-em="2048" ascent="1536" descent="-512" />
<missing-glyph horiz-adv-x="514" />
<glyph unicode=" "  horiz-adv-x="514" />
<glyph unicode="&#x09;" horiz-adv-x="514" />
<glyph unicode="&#xa0;" horiz-adv-x="514" />
<glyph unicode="!" horiz-adv-x="638" d="M184 111q0 55 40 96t95.5 41t95.5 -41t40 -96q0 -57 -40 -97.5t-96 -40.5q-57 0 -96 40.5t-39 97.5zM227 362v1072h185v-1072h-185z" />
<glyph unicode="&#x22;" horiz-adv-x="747" d="M127 1434h186l-32 -621h-119zM434 1434h187l-35 -621h-117z" />
<glyph unicode="#" horiz-adv-x="1163" d="M84 397v154h211l51 293h-201v153h230l65 369h148l-68 -369h240l65 369h148l-68 -369h174v-153h-202l-54 -293h195v-154h-223l-72 -397h-141l69 397h-241l-72 -397h-141l69 397h-182zM438 551h242l51 293h-239z" />
<glyph unicode="$" horiz-adv-x="1169" d="M72 1034q0 166 115.5 283t281.5 117h66v184h112v-184h279v-195h-279v-418h58q168 0 286.5 -119.5t118.5 -285.5q0 -170 -120 -293t-285 -123h-58v-184h-112v184h-385v205h385v420h-66q-164 0 -280.5 121.5t-116.5 287.5zM285 1030q0 -86 61.5 -147.5t147.5 -61.5h41v418 h-41q-86 0 -147.5 -61.5t-61.5 -147.5zM647 205h21q92 0 156.5 59.5t64.5 149.5q0 92 -63.5 151.5t-157.5 59.5h-21v-420z" />
<glyph unicode="%" horiz-adv-x="1400" d="M51 1130q0 137 96.5 232.5t231.5 95.5t232.5 -96t97.5 -232q0 -131 -97.5 -226t-232.5 -95t-231.5 94t-96.5 227zM170 1132.5q0 -88.5 59.5 -148.5t149.5 -60t150.5 60t60.5 148.5t-60.5 149.5t-150.5 61t-149.5 -61t-59.5 -149.5zM229 20l834 1438l106 -61l-831 -1436z M690 295q0 137 96.5 232.5t231.5 95.5t232.5 -96.5t97.5 -231.5q0 -131 -97.5 -226.5t-232.5 -95.5t-231.5 94.5t-96.5 227.5zM809 297q0 -88 59.5 -148.5t149.5 -60.5t150.5 60.5t60.5 148.5t-60.5 149.5t-150.5 61.5t-149.5 -61.5t-59.5 -149.5z" />
<glyph unicode="&#x26;" horiz-adv-x="1189" d="M66 416q0 166 118.5 285.5t286.5 119.5h33l-320 613h811v-177h-485l459 -886h-230l-133 254h-98q-94 0 -157.5 -59.5t-63.5 -151.5q0 -90 64.5 -149.5t156.5 -59.5h618v-205h-655q-166 0 -285.5 123t-119.5 293z" />
<glyph unicode="'" horiz-adv-x="440" d="M127 1434h186l-32 -621h-119z" />
<glyph unicode="(" horiz-adv-x="655" d="M131 604.5q0 493.5 152 861.5h227q-166 -352 -166 -862t166 -862h-227q-152 369 -152 862.5z" />
<glyph unicode=")" horiz-adv-x="655" d="M145 -258q166 352 166 862t-166 862h228q152 -369 151.5 -862t-151.5 -862h-228z" />
<glyph unicode="*" horiz-adv-x="751" d="M80 1014l174 100l-172 103l63 116l183 -100v201h141v-195l166 98l72 -120l-175 -103l175 -102l-72 -119l-166 102v-196h-141v198l-178 -100z" />
<glyph unicode="+" horiz-adv-x="1048" d="M0 442v176h436v443h176v-443h437v-176h-437v-442h-176v442h-436z" />
<glyph unicode="," horiz-adv-x="509" d="M59 -233l136 438h227l-236 -438h-127z" />
<glyph unicode="-" horiz-adv-x="759" d="M106 412v180h545v-180h-545z" />
<glyph unicode="." horiz-adv-x="466" d="M100 111q0 55 40 96t95.5 41t95.5 -41t40 -96q0 -57 -40 -97.5t-95 -40.5q-57 0 -96.5 40.5t-39.5 97.5z" />
<glyph unicode="/" horiz-adv-x="1093" d="M76 -272l772 1781l170 -75l-774 -1782z" />
<glyph unicode="0" horiz-adv-x="1255" d="M68 717q0 137 30.5 263t93 236.5t175 176t260 65.5t260 -65.5t175 -176t93.5 -236.5t31 -263q0 -109 -18.5 -211.5t-60.5 -200.5t-104.5 -171t-160 -117t-216 -44t-216 44t-160 117t-104.5 171t-60 200.5t-18 211.5zM281 717q0 -250 80.5 -406.5t265 -156.5t265.5 156.5 t81 406.5t-81 405.5t-265.5 155.5t-265 -155.5t-80.5 -405.5z" />
<glyph unicode="1" horiz-adv-x="692" d="M131 1260v176h408v-1436h-201v1260h-207z" />
<glyph unicode="2" horiz-adv-x="1128" d="M98 0l465 602q-186 2 -320 128t-134 300q0 176 136 302t324.5 126t324.5 -126t136 -302q0 -88 -26.5 -151.5t-88.5 -141.5l-440 -561h545v-176h-922zM315 1030.5q0 -102.5 74 -176.5t176.5 -74t177 74t74.5 176.5t-74.5 176t-177 73.5t-176.5 -73.5t-74 -176z" />
<glyph unicode="3" horiz-adv-x="1062" d="M78 379h209q6 -104 71.5 -164.5t167.5 -60.5q125 0 198 68.5t73 185.5q0 119 -81 190.5t-224 71.5h-170l333 587h-485v177h811l-340 -607q154 -18 261.5 -129.5t107.5 -265.5q0 -199 -127 -329t-357 -130q-199 0 -323.5 112t-124.5 294z" />
<glyph unicode="4" horiz-adv-x="1222" d="M59 246l940 1214v-1038h177v-176h-177v-246h-200v246h-740zM416 422h383v502z" />
<glyph unicode="5" horiz-adv-x="1021" d="M20 121l117 137q111 -111 273 -111q143 0 239 97.5t96 238.5q0 139 -105 237.5t-249 98.5q-145 0 -262 -98l78 713h676v-177h-527l-30 -264q27 6 84 6q227 0 387.5 -151.5t160.5 -364.5q0 -217 -154.5 -366.5t-393.5 -149.5q-232 0 -390 154z" />
<glyph unicode="6" horiz-adv-x="1054" d="M63 426q0 137 78 254l529 788l151 -112l-311 -473h14q195 0 331 -134.5t136 -322.5q0 -186 -136 -319.5t-331 -133.5q-190 0 -325.5 133.5t-135.5 319.5zM276 428q0 -113 74 -190.5t178.5 -77.5t177 77.5t72.5 190.5t-72.5 190.5t-177 77.5t-178.5 -77.5t-74 -190.5z" />
<glyph unicode="7" horiz-adv-x="1159" d="M123 1257v177h987l-756 -1469l-168 92l615 1200h-678z" />
<glyph unicode="8" horiz-adv-x="1087" d="M84 395q0 106 55.5 200.5t149.5 152.5q-156 117 -156 313q0 164 120 280.5t290 116.5t289.5 -116.5t119.5 -280.5q0 -197 -155 -313q94 -57 149 -151.5t55 -201.5q0 -174 -135 -298t-323.5 -124t-323.5 124t-135 298zM297 403.5q0 -102.5 71.5 -172t174 -69.5t174 69.5 t71.5 172t-71.5 173t-174 70.5t-174 -70.5t-71.5 -173zM334 1057q0 -92 59.5 -152.5t149.5 -60.5t149.5 60.5t59.5 152.5q0 94 -59.5 154.5t-149.5 60.5t-149.5 -60.5t-59.5 -154.5z" />
<glyph unicode="9" horiz-adv-x="1054" d="M63 1006q0 186 136.5 319t330.5 133q190 0 325.5 -133t135.5 -319q0 -141 -78 -254l-528 -789l-152 113l312 473h-15q-195 0 -331 134.5t-136 322.5zM276 1003.5q0 -112.5 73 -190.5t177.5 -78t178 78t73.5 190.5t-73.5 190.5t-178 78t-177.5 -78t-73 -190.5z" />
<glyph unicode=":" horiz-adv-x="466" d="M100 111q0 55 40 96t95.5 41t95.5 -41t40 -96q0 -57 -40 -97.5t-95 -40.5q-57 0 -96.5 40.5t-39.5 97.5zM100 836q0 55 40 96t95.5 41t95.5 -41t40 -96q0 -57 -40 -97.5t-95 -40.5q-57 0 -96.5 40.5t-39.5 97.5z" />
<glyph unicode=";" horiz-adv-x="509" d="M59 -233l136 438h227l-236 -438h-127zM184 836q0 55 40 96t95.5 41t95.5 -41t40 -96q0 -57 -40 -97.5t-96 -40.5q-57 0 -96 40.5t-39 97.5z" />
<glyph unicode="=" horiz-adv-x="1048" d="M0 319v177h1049v-177h-1049zM0 698v176h1049v-176h-1049z" />
<glyph unicode="?" horiz-adv-x="1157" d="M139 1014q0 186 120 315t314 129q197 0 324 -126t127 -312q0 -88 -34 -164t-82 -130t-96 -106.5t-82 -120t-34 -143.5h-198q0 90 32.5 170t80.5 137.5t95.5 110.5t80 115.5t32.5 130.5q0 102 -68.5 173t-177.5 71q-106 0 -169.5 -73t-63.5 -177h-201zM455 111q0 55 40 96 t95 41t95 -41t40 -96q0 -57 -40 -97.5t-95 -40.5q-57 0 -96 40.5t-39 97.5z" />
<glyph unicode="@" horiz-adv-x="1490" d="M66 414q0 344 241.5 588.5t589.5 244.5q256 0 440 -125v-1122h-473q-166 0 -285.5 123t-119.5 293q0 166 118.5 285.5t286.5 119.5h269v174q-113 47 -236 47q-260 0 -438 -185t-178 -443q0 -254 181 -435.5t435 -181.5v-205q-215 0 -405.5 106.5t-308 297.5t-117.5 418z M680 414q0 -90 64.5 -149.5t156.5 -59.5h232v420h-232q-94 0 -157.5 -59.5t-63.5 -151.5z" />
<glyph unicode="A" horiz-adv-x="1273" d="M31 0l606 1460l606 -1460h-221l-148 358h-475l-147 -358h-221zM469 543h336l-168 428z" />
<glyph unicode="B" horiz-adv-x="1204" d="M154 0v1434h546q160 0 273.5 -114t113.5 -273q0 -158 -147 -289q86 -47 138 -137.5t52 -200.5q0 -172 -122.5 -296t-296.5 -124h-557zM362 184h314q96 0 166.5 71t70.5 165q0 98 -69.5 167.5t-167.5 69.5h-314v-473zM362 842h304q86 0 145 59.5t59 142.5q0 86 -59 145.5 t-145 59.5h-304v-407z" />
<glyph unicode="C" horiz-adv-x="1159" d="M66 715q0 309 215 526t520 217q129 0 254 -45v-233q-119 74 -254 73q-211 0 -360.5 -157.5t-149.5 -380.5q0 -221 149.5 -379t360.5 -158q139 0 254 72v-232q-125 -45 -254 -45q-305 0 -520 217.5t-215 524.5z" />
<glyph unicode="D" horiz-adv-x="1417" d="M154 0v1434h501q289 0 492 -210t203 -507q0 -299 -200 -508t-495 -209h-501zM362 184h269q217 0 359.5 155t142.5 378t-143.5 377.5t-358.5 154.5h-269v-1065z" />
<glyph unicode="E" horiz-adv-x="1099" d="M154 0v1434h835v-201h-627v-346h599v-197h-599v-485h639v-205h-847z" />
<glyph unicode="F" horiz-adv-x="1099" d="M154 0v1434h835v-201h-627v-379h599v-197h-599v-657h-208z" />
<glyph unicode="G" horiz-adv-x="1622" d="M66 715q0 309 215 526t520 217q176 0 330.5 -80t257.5 -217q-10 -8 -29 -22.5t-56.5 -44t-62.5 -47.5l-27 -19q-70 104 -179 164.5t-234 60.5q-211 0 -360.5 -157.5t-149.5 -380.5q0 -221 149.5 -379t360.5 -158q215 0 357 127t153 330h-529v192h746q8 -49 8 -112 q0 -311 -209 -526.5t-526 -215.5q-305 0 -520 217.5t-215 524.5z" />
<glyph unicode="H" horiz-adv-x="1284" d="M154 0v1434h208v-617h560v617h208v-1434h-208v633h-560v-633h-208z" />
<glyph unicode="I" horiz-adv-x="516" d="M154 0v1434h208v-1434h-208z" />
<glyph unicode="J" horiz-adv-x="976" d="M43 399h209q0 -111 50 -164t130 -53q76 0 129 53.5t53 129.5v1069h209v-1067q0 -164 -113.5 -279t-277.5 -115q-168 0 -278.5 114.5t-110.5 311.5z" />
<glyph unicode="K" horiz-adv-x="1159" d="M154 0v1434h208v-652l478 652h239l-489 -662l532 -772h-264l-397 600l-99 -133v-467h-208z" />
<glyph unicode="L" horiz-adv-x="997" d="M154 0v1434h208v-1229h586v-205h-794z" />
<glyph unicode="M" horiz-adv-x="1679" d="M80 0l270 1460l479 -1005l480 1005l270 -1460h-217l-141 809l-392 -836l-391 836l-141 -809h-217z" />
<glyph unicode="N" horiz-adv-x="1409" d="M143 0v1434h193l733 -904v904h197v-1459l-926 1106v-1081h-197z" />
<glyph unicode="O" horiz-adv-x="1601" d="M66 715q0 309 215 526t520 217t520 -217t215 -526q0 -307 -215 -524.5t-520 -217.5t-520 217.5t-215 524.5zM291 715q0 -221 149.5 -379t360.5 -158t360.5 158t149.5 379q0 223 -149.5 380.5t-360.5 157.5t-360.5 -157.5t-149.5 -380.5z" />
<glyph unicode="P" horiz-adv-x="1198" d="M154 0v1434h505q197 0 335.5 -140.5t138.5 -337.5q0 -199 -138.5 -337t-335.5 -138h-297v-481h-208zM362 666h269q133 0 208.5 79.5t75.5 210.5q0 121 -82.5 207t-201.5 86h-269v-583z" />
<glyph unicode="Q" horiz-adv-x="1605" d="M68 715q0 309 215 526t520 217t520 -217t215 -526q0 -281 -182 -491t-455 -244v-289h-196v289q-272 35 -454.5 244.5t-182.5 490.5zM293 715q0 -195 117.5 -343.5t294.5 -183.5v195h196v-195q176 35 294 183.5t118 343.5q0 223 -149.5 380.5t-360.5 157.5t-360.5 -157.5 t-149.5 -380.5z" />
<glyph unicode="R" horiz-adv-x="1277" d="M154 0v1434h464q229 0 384 -144.5t155 -363.5q0 -143 -71.5 -254t-167.5 -160q240 -137 239 -453v-59h-213v59q0 131 -90 246t-236 115h-253v-420h-211zM365 604h278q123 0 210 98.5t87 223.5q0 127 -86 225t-211 98h-278v-645z" />
<glyph unicode="S" horiz-adv-x="1169" d="M72 1034q0 166 115.5 283t281.5 117h457v-195h-432q-86 0 -147.5 -61.5t-61.5 -147.5t61.5 -147.5t147.5 -61.5h211q168 0 286.5 -119.5t118.5 -285.5q0 -170 -120 -293t-285 -123h-555v205h518q92 0 156.5 59.5t64.5 149.5q0 92 -63.5 151.5t-157.5 59.5h-199 q-164 0 -280.5 121.5t-116.5 287.5z" />
<glyph unicode="T" horiz-adv-x="1028" d="M55 1233v201h918v-201h-355v-1233h-208v1233h-355z" />
<glyph unicode="U" horiz-adv-x="1271" d="M154 457v977h208v-977q0 -115 83 -199t200 -84t201 84t84 199v977h209v-977q0 -203 -144.5 -343.5t-351.5 -140.5q-205 0 -347 140.5t-142 343.5z" />
<glyph unicode="V" horiz-adv-x="1253" d="M37 1434h219l371 -912l370 912h220l-590 -1459z" />
<glyph unicode="W" horiz-adv-x="1642" d="M37 1434h219l371 -912l84 203l-285 709h219l371 -912l370 912h220l-590 -1459l-195 480l-194 -480z" />
<glyph unicode="X" horiz-adv-x="1099" d="M53 0l396 770l-340 664h223l219 -433l219 433h223l-340 -664l396 -770h-222l-276 535l-277 -535h-221z" />
<glyph unicode="Y" horiz-adv-x="1163" d="M35 1434h231l316 -623l315 623h231l-442 -830v-604h-209v604z" />
<glyph unicode="Z" horiz-adv-x="1034" d="M49 0l578 1233h-500v201h834l-582 -1229h579v-205h-909z" />
<glyph unicode="[" horiz-adv-x="645" d="M133 -260v1726h389v-172h-184v-1382h184v-172h-389z" />
<glyph unicode="\" horiz-adv-x="1093" d="M76 1434l170 75l772 -1781l-168 -76z" />
<glyph unicode="]" horiz-adv-x="645" d="M123 -88h184v1382h-184v172h389v-1726h-389v172z" />
<glyph unicode="_" horiz-adv-x="1310" d="M39 -139h1231v-140h-1231v140z" />
<glyph unicode="`" horiz-adv-x="468" d="M37 1346h201l194 -267h-143z" />
<glyph unicode="a" horiz-adv-x="901" d="M14 0l437 987l436 -987h-207l-70 170h-317l-72 -170h-207zM352 344h197l-98 231z" />
<glyph unicode="b" horiz-adv-x="933" d="M123 0v963h467q106 0 183 -75t77 -183q0 -104 -100 -193q59 -33 96 -93.5t37 -133.5q0 -117 -85 -201t-202 -84h-473zM319 184h234q47 0 81 34t34 83q0 47 -34 82t-81 35h-234v-234zM319 594h226q39 0 67.5 27.5t28.5 66.5t-28.5 66.5t-67.5 27.5h-226v-188z" />
<glyph unicode="c" horiz-adv-x="788" d="M43 477q0 211 150.5 359.5t359.5 148.5q88 0 162 -27v-210q-74 47 -162 47q-129 0 -216 -93.5t-87 -224.5t88 -223t215 -92q90 0 162 47v-211q-84 -27 -162 -27q-209 0 -359.5 148.5t-150.5 357.5z" />
<glyph unicode="d" horiz-adv-x="1071" d="M123 0v963h438q195 0 331 -140.5t136 -339.5q0 -201 -135 -342t-332 -141h-438zM319 184h189q131 0 215 86t84 213t-84 213t-215 86h-189v-598z" />
<glyph unicode="e" horiz-adv-x="770" d="M123 0v963h569v-185h-373v-184h353v-180h-353v-230h381v-184h-577z" />
<glyph unicode="f" horiz-adv-x="770" d="M123 0v963h569v-185h-373v-205h353v-180h-353v-393h-196z" />
<glyph unicode="g" horiz-adv-x="1095" d="M43 477q0 211 150.5 359.5t359.5 148.5q262 0 408 -199l-162 -118q-86 127 -246 127q-129 0 -216 -93.5t-87 -224.5t88 -223t215 -92q104 0 180 59.5t109 151.5h-301v180h518q6 -37 6 -76q0 -209 -150.5 -357.5t-361.5 -148.5q-209 0 -359.5 148.5t-150.5 357.5z" />
<glyph unicode="h" horiz-adv-x="1015" d="M123 0v963h196v-392h377v392h197v-963h-197v399h-377v-399h-196z" />
<glyph unicode="i" horiz-adv-x="442" d="M123 0v963h196v-963h-196z" />
<glyph unicode="j" horiz-adv-x="800" d="M39 309h197q0 -74 33.5 -110.5t86.5 -36.5q51 0 88 37t37 86v678h197v-668q0 -133 -94.5 -227.5t-227.5 -94.5t-225 94.5t-92 241.5z" />
<glyph unicode="k" horiz-adv-x="903" d="M123 0v963h196v-414l291 414h221l-315 -428l383 -535h-248l-256 373l-76 -101v-272h-196z" />
<glyph unicode="l" horiz-adv-x="770" d="M123 0v963h196v-779h394v-184h-590z" />
<glyph unicode="m" horiz-adv-x="1187" d="M74 0l192 987l328 -641l328 641l192 -987h-184l-88 461l-248 -486l-248 486l-88 -461h-184z" />
<glyph unicode="n" horiz-adv-x="1021" d="M123 0v963h172l420 -492v492h184v-988l-592 711v-686h-184z" />
<glyph unicode="o" d="M43 477q0 211 150.5 359.5t359.5 148.5q211 0 361.5 -148.5t150.5 -359.5q0 -209 -150.5 -357.5t-361.5 -148.5q-209 0 -359.5 148.5t-150.5 357.5zM250 477q0 -131 88 -223t215 -92q129 0 217 92t88 223t-88 224.5t-217 93.5t-216 -93.5t-87 -224.5z" />
<glyph unicode="p" horiz-adv-x="892" d="M123 0v963h424q131 0 224 -94.5t93 -225.5q0 -135 -93 -233.5t-224 -98.5h-228v-311h-196zM319 492h191q59 0 102 43t43 102t-43 102t-102 43h-191v-290z" />
<glyph unicode="q" d="M43 477q0 211 150.5 359.5t359.5 148.5q211 0 361.5 -148.5t150.5 -359.5q0 -188 -124 -329.5t-308 -170.5v-198h-158v198q-184 29 -308 170.5t-124 329.5zM250 477q0 -109 62.5 -193.5t162.5 -111.5v139h158v-139q100 27 162.5 112t62.5 193q0 131 -88 224.5t-217 93.5 t-216 -93.5t-87 -224.5z" />
<glyph unicode="r" horiz-adv-x="923" d="M123 0v963h424q131 0 224 -94.5t93 -225.5q0 -86 -42 -169t-109 -134q76 -37 113.5 -116t37.5 -169v-55h-196v45q0 88 -60.5 163t-158.5 75h-130v-283h-196zM319 463h177q66 0 112.5 47t46.5 112.5t-47 112.5t-112 47h-177v-319z" />
<glyph unicode="s" horiz-adv-x="804" d="M53 684q0 117 82 198t197 81h297v-177h-285q-41 0 -70.5 -29.5t-29.5 -70.5t29.5 -70.5t70.5 -29.5h115q123 0 208 -85t85 -208q0 -115 -89.5 -204t-203.5 -89h-353v176h338q47 0 81 34t34 81t-33.5 81t-81.5 34h-112q-115 0 -197 81.5t-82 196.5z" />
<glyph unicode="t" horiz-adv-x="790" d="M59 774v189h668v-189h-233v-774h-197v774h-238z" />
<glyph unicode="u" horiz-adv-x="913" d="M123 317v646h196v-654q0 -61 43.5 -104t104.5 -43t104 43t43 104v654h197v-646q0 -143 -100.5 -243.5t-243.5 -100.5t-243.5 100.5t-100.5 243.5z" />
<glyph unicode="v" horiz-adv-x="880" d="M27 963h196l217 -551l217 551h197l-414 -988z" />
<glyph unicode="w" horiz-adv-x="1220" d="M29 963h196l248 -592l66 166l-172 426h194l217 -592l217 592h197l-414 -988l-160 369l-153 -369z" />
<glyph unicode="x" horiz-adv-x="868" d="M31 0l266 516l-229 447h219l147 -289l148 289h219l-230 -447l267 -516h-220l-184 360l-184 -360h-219z" />
<glyph unicode="y" horiz-adv-x="884" d="M29 963h219l194 -383l195 383h219l-315 -557v-406h-197v406z" />
<glyph unicode="z" horiz-adv-x="886" d="M31 0l469 782h-402v181h742l-469 -779h436v-184h-776z" />
<glyph unicode="{" horiz-adv-x="624" d="M47 526v152q90 0 122 47t32 166v399q0 74 51 125t123 51h180v-172h-82q-27 0 -45 -18.5t-18 -44.5v-340q0 -246 -156 -289q156 -43 156 -289v-340q0 -27 18 -45t45 -18h82v-172h-180q-72 0 -123 51t-51 125v399q0 119 -32 166t-122 47z" />
<glyph unicode="|" horiz-adv-x="616" d="M205 -406v1942h207v-1942h-207z" />
<glyph unicode="}" horiz-adv-x="624" d="M70 -90h82q27 0 45 18.5t18 44.5v340q0 246 156 289q-156 43 -156 289v340q0 27 -18.5 45t-44.5 18h-82v172h180q72 0 123 -51t51 -125v-399q0 -119 31.5 -166t122.5 -47v-152q-90 0 -122 -47t-32 -166v-399q0 -74 -51 -125t-123 -51h-180v172z" />
<glyph unicode="&#xa1;" horiz-adv-x="638" d="M195 848q0 57 38.5 97t96.5 40q55 0 95 -40t40 -97q0 -55 -40 -96t-95.5 -41t-95 41t-39.5 96zM238 -475v1071h184v-1071h-184z" />
<glyph unicode="&#xa2;" horiz-adv-x="788" d="M43 477.5q0 188.5 124 330.5t306 171v215h111v-211q66 -2 131 -25v-219q-61 49 -162 49q-125 0 -211 -91t-86 -220q0 -127 86 -218t211 -91q94 0 162 49v-219q-78 -23 -131 -25v-227h-111v231q-182 29 -306 170.5t-124 330z" />
<glyph unicode="&#xa3;" horiz-adv-x="1175" d="M92 0v205h113v446h-76v185h76v221q0 160 116.5 280.5t286.5 120.5q184 0 288.5 -102.5t109.5 -245.5h-197q-6 55 -55 103.5t-139.5 48.5t-149.5 -62.5t-59 -148.5v-215h454v-185h-454v-446h331q70 0 120 49t50 121q-2 47 -18 104h209q12 -61 12 -112 q0 -168 -112.5 -267.5t-313.5 -99.5h-592z" />
<glyph unicode="&#xa5;" horiz-adv-x="1163" d="M35 1434h231l316 -623l315 623h231l-362 -678h340v-176h-420v-134h420v-176h-420v-270h-209v270h-420v176h420v134h-420v176h338z" />
<glyph unicode="&#xa7;" horiz-adv-x="1185" d="M90 492q0 199 180 311q-59 43 -99 116.5t-40 165.5q0 160 112.5 274t272.5 114h402v-179h-375q-88 0 -147.5 -60t-59.5 -148.5t59.5 -147.5t147.5 -59h159q164 0 279 -115t115 -277q0 -94 -45 -172.5t-111 -126.5q156 -104 156 -297q0 -164 -115 -273.5t-279 -109.5h-450 v179h416q90 0 152.5 58t62.5 144q0 88 -62.5 146.5t-152.5 58.5h-193q-160 0 -272.5 118t-112.5 280zM295 487.5q0 -81.5 59.5 -142t143.5 -60.5h184q82 0 141.5 59t59.5 143q0 82 -58.5 141.5t-142.5 59.5h-184q-84 0 -143.5 -59.5t-59.5 -141z" />
<glyph unicode="&#xa8;" horiz-adv-x="927" d="M195 1180q0 41 28.5 70.5t69.5 29.5q39 0 68.5 -29.5t29.5 -70.5t-28.5 -71t-69.5 -30t-69.5 30t-28.5 71zM578 1180q0 41 28.5 70.5t69.5 29.5q39 0 68.5 -29.5t29.5 -70.5t-28.5 -71t-69.5 -30t-69.5 30t-28.5 71z" />
<glyph unicode="&#xa9;" horiz-adv-x="1597" d="M63 715q0 311 214.5 527t521.5 216t521 -216t214 -527q0 -309 -214 -525.5t-521 -216.5t-521.5 216.5t-214.5 525.5zM201 715q0 -258 174 -436.5t424 -178.5t424 178.5t174 436.5q0 260 -173 438t-425 178t-425 -178t-173 -438zM401 721q0 178 124 303t300 125 q78 0 146 -25v-135q-66 41 -146 41q-121 0 -208 -91t-87 -218t87.5 -218t207.5 -91q80 0 146 41v-136q-68 -25 -146 -24q-176 0 -300 125t-124 303z" />
<glyph unicode="&#xaa;" horiz-adv-x="542" d="M8 887l262 573l262 -573h-133l-47 106h-164l-47 -106h-133zM217 1092h107l-54 127z" />
<glyph unicode="&#xab;" horiz-adv-x="1036" d="M88 514l311 424h176l-309 -424l309 -424h-176zM459 514l311 424h176l-309 -424l309 -424h-176z" />
<glyph unicode="&#xad;" horiz-adv-x="759" d="M106 412v180h545v-180h-545z" />
<glyph unicode="&#xae;" horiz-adv-x="690" d="M63 1175.5q0 118.5 82 200.5t199 82t199 -82t82 -200.5t-82 -200.5t-199 -82t-199 82t-82 200.5zM121 1175.5q0 -98.5 64.5 -165t158.5 -66.5t158.5 66.5t64.5 165t-64.5 165t-158.5 66.5t-158.5 -66.5t-64.5 -165zM236 1014v327h114q53 0 88 -32.5t35 -83.5 q0 -63 -55 -95q55 -31 55 -102v-14h-53v14q0 29 -20.5 55.5t-53.5 26.5h-57v-96h-53zM289 1153h63q29 0 48.5 21.5t19.5 50t-19.5 50t-48.5 21.5h-63v-143z" />
<glyph unicode="&#xaf;" horiz-adv-x="817" d="M154 1112v150h510v-150h-510z" />
<glyph unicode="&#xb0;" horiz-adv-x="729" d="M90 1181.5q0 114.5 80 195.5t194.5 81t194.5 -81t80 -195.5t-80 -195.5t-194.5 -81t-194.5 81t-80 195.5zM205 1182q0 -70 46 -118t113.5 -48t113.5 48t46 118q0 72 -46 119t-113.5 47t-113.5 -47t-46 -119z" />
<glyph unicode="&#xb2;" horiz-adv-x="1128" d="M98 0l465 602q-186 2 -320 128t-134 300q0 176 136 302t324.5 126t324.5 -126t136 -302q0 -88 -26.5 -151.5t-88.5 -141.5l-440 -561h545v-176h-922zM315 1030.5q0 -102.5 74 -176.5t176.5 -74t177 74t74.5 176.5t-74.5 176t-177 73.5t-176.5 -73.5t-74 -176z" />
<glyph unicode="&#xb3;" horiz-adv-x="1062" d="M78 379h209q6 -104 71.5 -164.5t167.5 -60.5q125 0 198 68.5t73 185.5q0 119 -81 190.5t-224 71.5h-170l333 587h-485v177h811l-340 -607q154 -18 261.5 -129.5t107.5 -265.5q0 -199 -127 -329t-357 -130q-199 0 -323.5 112t-124.5 294z" />
<glyph unicode="&#xb4;" horiz-adv-x="468" d="M37 1079l194 267h201l-252 -267h-143z" />
<glyph unicode="&#xb6;" horiz-adv-x="1198" d="M59 972.5q0 190.5 136.5 327t326.5 136.5h572v-166h-121v-1530h-164v1530h-123v-1530h-164v770q-190 0 -326.5 136t-136.5 326.5z" />
<glyph unicode="&#xb7;" horiz-adv-x="471" d="M100 543q0 55 40 96t95.5 41t95.5 -41t40 -96q0 -57 -40 -97t-95 -40q-57 0 -96.5 40t-39.5 97z" />
<glyph unicode="&#xb9;" horiz-adv-x="692" d="M131 1260v176h408v-1436h-201v1260h-207z" />
<glyph unicode="&#xba;" horiz-adv-x="659" d="M39 1167q0 123 84 208t207 85t207 -85t84 -208q0 -121 -84 -205.5t-207 -84.5t-207 84.5t-84 205.5zM174 1167.5q0 -67.5 45 -117t111 -49.5q63 0 109 49.5t46 117t-46 116.5t-109 49q-66 0 -111 -49t-45 -116.5z" />
<glyph unicode="&#xbb;" horiz-adv-x="1036" d="M88 90l309 424l-309 424h176l311 -424l-311 -424h-176zM459 90l309 424l-309 424h176l311 -424l-311 -424h-176z" />
<glyph unicode="&#xbc;" horiz-adv-x="2557" d="M1394 246l940 1214v-1038h177v-176h-177v-246h-200v246h-740zM1751 422h383v502zM633 -127l587 1751l174 -61l-587 -1751zM131 1260v176h408v-1436h-201v1260h-207z" />
<glyph unicode="&#xbd;" horiz-adv-x="2463" d="M1433 0l465 602q-186 2 -320 128t-134 300q0 176 136 302t324.5 126t324.5 -126t136 -302q0 -88 -26.5 -151.5t-88.5 -141.5l-440 -561h545v-176h-922zM1650 1030.5q0 -102.5 74 -176.5t176.5 -74t177 74t74.5 176.5t-74.5 176t-177 73.5t-176.5 -73.5t-74 -176z M633 -127l587 1751l174 -61l-587 -1751zM131 1260v176h408v-1436h-201v1260h-207z" />
<glyph unicode="&#xbe;" horiz-adv-x="2928" d="M1765 246l940 1214v-1038h177v-176h-177v-246h-200v246h-740zM2122 422h383v502zM1004 -127l587 1751l174 -61l-587 -1751zM78 379h209q6 -104 71.5 -164.5t167.5 -60.5q125 0 198 68.5t73 185.5q0 119 -81 190.5t-224 71.5h-170l333 587h-485v177h811l-340 -607 q154 -18 261.5 -129.5t107.5 -265.5q0 -199 -127 -329t-357 -130q-199 0 -323.5 112t-124.5 294z" />
<glyph unicode="&#xbf;" horiz-adv-x="1157" d="M133 -61q0 88 34 163.5t82 130t96 106.5t82 119.5t34 143.5h198q0 -90 -32.5 -170t-80.5 -137t-95.5 -110.5t-80 -116t-32.5 -129.5q0 -102 68.5 -173t177.5 -71q106 0 169.5 72.5t63.5 177.5h201q0 -186 -120 -315.5t-314 -129.5q-197 0 -324 126.5t-127 312.5zM432 848 q0 57 40 97t95 40q57 0 96 -40t39 -97q0 -55 -39.5 -96t-95 -41t-95.5 41t-40 96z" />
<glyph unicode="&#xc0;" horiz-adv-x="1273" d="M31 0l606 1460l606 -1460h-221l-148 358h-475l-147 -358h-221zM334 1802h201l194 -266h-143zM469 543h336l-168 428z" />
<glyph unicode="&#xc1;" horiz-adv-x="1273" d="M31 0l606 1460l606 -1460h-221l-148 358h-475l-147 -358h-221zM469 543h336l-168 428zM526 1536l195 266h201l-252 -266h-144z" />
<glyph unicode="&#xc2;" horiz-adv-x="1273" d="M31 0l606 1460l606 -1460h-221l-148 358h-475l-147 -358h-221zM434 1526v160l205 122l203 -122v-160l-203 123zM469 543h336l-168 428z" />
<glyph unicode="&#xc3;" horiz-adv-x="1273" d="M31 0l606 1460l606 -1460h-221l-148 358h-475l-147 -358h-221zM346 1593q49 137 197 138q39 0 100.5 -20.5t89.5 -20.5q63 0 94 63l103 -61q-49 -137 -197 -138q-33 0 -95.5 20.5t-94.5 20.5q-63 0 -94 -63zM469 543h336l-168 428z" />
<glyph unicode="&#xc4;" horiz-adv-x="1273" d="M31 0l606 1460l606 -1460h-221l-148 358h-475l-147 -358h-221zM348 1636q0 41 29 71t69 30q39 0 69 -30t30 -71t-29 -70.5t-69.5 -29.5t-69.5 29.5t-29 70.5zM469 543h336l-168 428zM731 1636q0 41 28.5 71t69.5 30q39 0 69 -30t30 -71t-29 -70.5t-70 -29.5t-69.5 29.5 t-28.5 70.5z" />
<glyph unicode="&#xc5;" horiz-adv-x="1273" d="M31 0l606 1460l606 -1460h-221l-148 358h-475l-147 -358h-221zM438 1737q0 82 57.5 140t141.5 58t142.5 -58t58.5 -140q0 -84 -58.5 -142.5t-142.5 -58.5t-141.5 58.5t-57.5 142.5zM469 543h336l-168 428zM541 1735q0 -39 28.5 -67t67.5 -28t67.5 28t28.5 67 q0 43 -27.5 69.5t-68.5 26.5t-68.5 -26.5t-27.5 -69.5z" />
<glyph unicode="&#xc6;" horiz-adv-x="1665" d="M29 0l600 1434h936v-201h-840l147 -346h693v-197h-609l205 -485h404v-205h-545l-150 358h-471l-149 -358h-221zM479 563h312l-156 387z" />
<glyph unicode="&#xc7;" horiz-adv-x="1161" d="M66 715q0 309 215 526t520 217q129 0 254 -45v-233q-119 74 -254 73q-211 0 -360.5 -157.5t-149.5 -380.5q0 -154 76.5 -282t203.5 -197l99 145l147 -100l-65 -101q16 -2 49 -2q139 0 254 72v-232q-125 -45 -254 -45q-90 0 -180 23l-181 -260l-147 100l158 225 q-174 96 -279.5 270.5t-105.5 383.5z" />
<glyph unicode="&#xc8;" horiz-adv-x="1103" d="M158 0v1434h835v-201h-626v-346h598v-197h-598v-485h639v-205h-848zM385 1802h201l194 -266h-143z" />
<glyph unicode="&#xc9;" horiz-adv-x="1103" d="M158 0v1434h835v-201h-626v-346h598v-197h-598v-485h639v-205h-848zM477 1536l195 266h200l-251 -266h-144z" />
<glyph unicode="&#xca;" horiz-adv-x="1103" d="M158 0v1434h835v-201h-626v-346h598v-197h-598v-485h639v-205h-848zM395 1526v160l205 122l203 -122v-160l-203 123z" />
<glyph unicode="&#xcb;" horiz-adv-x="1103" d="M158 0v1434h835v-201h-626v-346h598v-197h-598v-485h639v-205h-848zM299 1636q0 41 28.5 71t69.5 30q39 0 69 -30t30 -71t-29 -70.5t-70 -29.5t-69.5 29.5t-28.5 70.5zM682 1636q0 41 28.5 71t69.5 30q39 0 69 -30t30 -71t-29 -70.5t-70 -29.5t-69.5 29.5t-28.5 70.5z " />
<glyph unicode="&#xcc;" horiz-adv-x="516" d="M-18 1804h200l195 -266h-144zM154 0v1434h208v-1434h-208z" />
<glyph unicode="&#xcd;" horiz-adv-x="516" d="M127 1536l195 266h200l-252 -266h-143zM154 0v1434h208v-1434h-208z" />
<glyph unicode="&#xce;" horiz-adv-x="516" d="M55 1526v160l205 122l203 -122v-160l-203 123zM154 0v1434h208v-1434h-208z" />
<glyph unicode="&#xcf;" horiz-adv-x="516" d="M-31 1636q0 41 29 71t70 30q39 0 68.5 -30t29.5 -71t-28.5 -70.5t-69.5 -29.5t-70 29.5t-29 70.5zM154 0v1434h208v-1434h-208zM352 1636q0 41 29 71t70 30q39 0 68.5 -30t29.5 -71t-28.5 -70.5t-69.5 -29.5t-70 29.5t-29 70.5z" />
<glyph unicode="&#xd0;" horiz-adv-x="1413" d="M45 676v180h109v578h501q289 0 492 -210t203 -507q0 -299 -200 -508t-495 -209h-501v676h-109zM362 184h269q217 0 359.5 155t142.5 378t-143.5 377.5t-358.5 154.5h-269v-393h271v-180h-271v-492z" />
<glyph unicode="&#xd1;" horiz-adv-x="1433" d="M143 0v1434h193l733 -904v904h197v-1459l-926 1106v-1081h-197zM420 1593q49 137 196 138q39 0 100.5 -20.5t90.5 -20.5q63 0 94 63l103 -61q-49 -137 -197 -138q-33 0 -95.5 20.5t-95.5 20.5q-63 0 -94 -63z" />
<glyph unicode="&#xd2;" horiz-adv-x="1601" d="M66 715q0 309 215 526t520 217t520 -217t215 -526q0 -307 -215 -524.5t-520 -217.5t-520 217.5t-215 524.5zM291 715q0 -221 149.5 -379t360.5 -158t360.5 158t149.5 379q0 223 -149.5 380.5t-360.5 157.5t-360.5 -157.5t-149.5 -380.5zM530 1802h201l195 -266h-144z" />
<glyph unicode="&#xd3;" horiz-adv-x="1601" d="M66 715q0 309 215 526t520 217t520 -217t215 -526q0 -307 -215 -524.5t-520 -217.5t-520 217.5t-215 524.5zM291 715q0 -221 149.5 -379t360.5 -158t360.5 158t149.5 379q0 223 -149.5 380.5t-360.5 157.5t-360.5 -157.5t-149.5 -380.5zM657 1536l195 266h201l-252 -266 h-144z" />
<glyph unicode="&#xd4;" horiz-adv-x="1601" d="M66 715q0 309 215 526t520 217t520 -217t215 -526q0 -307 -215 -524.5t-520 -217.5t-520 217.5t-215 524.5zM291 715q0 -221 149.5 -379t360.5 -158t360.5 158t149.5 379q0 223 -149.5 380.5t-360.5 157.5t-360.5 -157.5t-149.5 -380.5zM596 1495v160l205 123l203 -123 v-160l-203 123z" />
<glyph unicode="&#xd5;" horiz-adv-x="1601" d="M66 715q0 309 215 526t520 217t520 -217t215 -526q0 -307 -215 -524.5t-520 -217.5t-520 217.5t-215 524.5zM291 715q0 -221 149.5 -379t360.5 -158t360.5 158t149.5 379q0 223 -149.5 380.5t-360.5 157.5t-360.5 -157.5t-149.5 -380.5zM508 1593q49 137 197 138 q39 0 100 -20.5t90 -20.5q63 0 94 63l103 -61q-49 -137 -197 -138q-33 0 -95.5 20.5t-94.5 20.5q-63 0 -95 -63z" />
<glyph unicode="&#xd6;" horiz-adv-x="1601" d="M66 715q0 309 215 526t520 217t520 -217t215 -526q0 -307 -215 -524.5t-520 -217.5t-520 217.5t-215 524.5zM291 715q0 -221 149.5 -379t360.5 -158t360.5 158t149.5 379q0 223 -149.5 380.5t-360.5 157.5t-360.5 -157.5t-149.5 -380.5zM510 1636q0 41 28.5 71t69.5 30 q39 0 69 -30t30 -71t-29 -70.5t-70 -29.5t-69.5 29.5t-28.5 70.5zM893 1636q0 41 28.5 71t69.5 30q39 0 69 -30t30 -71t-29 -70.5t-70 -29.5t-69.5 29.5t-28.5 70.5z" />
<glyph unicode="&#xd7;" horiz-adv-x="1112" d="M125 860l113 121l307 -317l311 317l113 -121l-314 -313l308 -318l-123 -114l-293 307l-293 -307l-123 114l301 312z" />
<glyph unicode="&#xd8;" horiz-adv-x="1603" d="M68 51l178 178q-178 207 -178 486q0 309 215 526t520 217q283 0 489 -190l164 164l82 -80l-166 -166q166 -209 166 -471q0 -307 -215 -524.5t-520 -217.5q-270 0 -477 174l-176 -176zM293 715q0 -184 108 -330l740 731q-143 137 -338 137q-211 0 -360.5 -157.5 t-149.5 -380.5zM479 299q141 -121 324 -121q211 0 360.5 158t149.5 379q0 172 -99 315z" />
<glyph unicode="&#xd9;" horiz-adv-x="1271" d="M154 457v977h208v-977q0 -115 83 -199t200 -84t201 84t84 199v977h209v-977q0 -203 -144.5 -343.5t-351.5 -140.5q-205 0 -347 140.5t-142 343.5zM426 1802h201l194 -266h-143z" />
<glyph unicode="&#xda;" horiz-adv-x="1271" d="M154 457v977h208v-977q0 -115 83 -199t200 -84t201 84t84 199v977h209v-977q0 -203 -144.5 -343.5t-351.5 -140.5q-205 0 -347 140.5t-142 343.5zM506 1536l194 266h201l-252 -266h-143z" />
<glyph unicode="&#xdb;" horiz-adv-x="1271" d="M154 457v977h208v-977q0 -115 83 -199t200 -84t201 84t84 199v977h209v-977q0 -203 -144.5 -343.5t-351.5 -140.5q-205 0 -347 140.5t-142 343.5zM451 1526v160l204 122l203 -122v-160l-203 123z" />
<glyph unicode="&#xdc;" horiz-adv-x="1271" d="M154 457v977h208v-977q0 -115 83 -199t200 -84t201 84t84 199v977h209v-977q0 -203 -144.5 -343.5t-351.5 -140.5q-205 0 -347 140.5t-142 343.5zM356 1636q0 41 29 71t70 30q39 0 68.5 -30t29.5 -71t-28.5 -70.5t-69.5 -29.5t-70 29.5t-29 70.5zM739 1636q0 41 29 71 t70 30q39 0 68.5 -30t29.5 -71t-28.5 -70.5t-69.5 -29.5t-70 29.5t-29 70.5z" />
<glyph unicode="&#xdd;" horiz-adv-x="1163" d="M35 1434h231l316 -623l315 623h231l-442 -830v-604h-209v604zM479 1538l195 266h200l-251 -266h-144z" />
<glyph unicode="&#xde;" horiz-adv-x="1198" d="M154 0v1434h208v-177h297q197 0 335.5 -140t138.5 -337q0 -199 -138.5 -337t-335.5 -138h-297v-305h-208zM362 489h269q133 0 208.5 80t75.5 211q0 121 -82.5 207t-201.5 86h-269v-584z" />
<glyph unicode="&#xe0;" horiz-adv-x="901" d="M14 0l437 987l436 -987h-207l-70 170h-317l-72 -170h-207zM168 1346h201l194 -267h-143zM352 344h197l-98 231z" />
<glyph unicode="&#xe1;" horiz-adv-x="901" d="M14 0l437 987l436 -987h-207l-70 170h-317l-72 -170h-207zM334 1079l194 267h201l-252 -267h-143zM352 344h197l-98 231z" />
<glyph unicode="&#xe2;" horiz-adv-x="901" d="M14 0l437 987l436 -987h-207l-70 170h-317l-72 -170h-207zM248 1053v159l205 123l202 -123v-159l-202 123zM352 344h197l-98 231z" />
<glyph unicode="&#xe3;" horiz-adv-x="901" d="M14 0l437 987l436 -987h-207l-70 170h-317l-72 -170h-207zM158 1155q49 137 196 137q39 0 100.5 -20.5t90.5 -20.5q63 0 94 64l102 -62q-49 -137 -196 -137q-33 0 -95.5 20.5t-95.5 20.5q-63 0 -94 -63zM352 344h197l-98 231z" />
<glyph unicode="&#xe4;" horiz-adv-x="901" d="M14 0l437 987l436 -987h-207l-70 170h-317l-72 -170h-207zM162 1180q0 41 28.5 70.5t69.5 29.5q39 0 68.5 -29.5t29.5 -70.5t-28.5 -71t-69.5 -30t-69.5 30t-28.5 71zM352 344h197l-98 231zM545 1180q0 41 28.5 70.5t69.5 29.5q39 0 68.5 -29.5t29.5 -70.5t-28.5 -71 t-69.5 -30t-69.5 30t-28.5 71z" />
<glyph unicode="&#xe5;" horiz-adv-x="901" d="M14 0l437 987l436 -987h-207l-70 170h-317l-72 -170h-207zM250 1270q0 82 57.5 140t141 58t142 -58t58.5 -140q0 -84 -58.5 -142.5t-142 -58.5t-141 58.5t-57.5 142.5zM352 344h197l-98 231zM352 1268q0 -39 29 -66.5t67.5 -27.5t67.5 27.5t29 66.5q0 43 -28 69.5 t-68.5 26.5t-68.5 -26.5t-28 -69.5z" />
<glyph unicode="&#xe6;" horiz-adv-x="1118" d="M16 0l437 963h587v-185h-503l81 -184h402v-180h-320l105 -230h244v-184h-367l-70 170h-317l-72 -170h-207zM354 344h197l-98 225z" />
<glyph unicode="&#xe7;" horiz-adv-x="788" d="M43 477q0 211 150.5 359.5t359.5 148.5q88 0 162 -27v-210q-74 47 -162 47q-129 0 -216 -93.5t-87 -224.5q0 -145 106 -241l78 114l139 -96l-61 -90q12 -2 41 -2q90 0 162 47v-211q-84 -27 -162 -27q-84 0 -158 25l-141 -209l-139 96l131 191q-94 70 -148.5 175 t-54.5 228z" />
<glyph unicode="&#xe8;" horiz-adv-x="770" d="M123 0v963h569v-185h-373v-184h353v-180h-353v-230h381v-184h-577zM186 1346h201l195 -267h-144z" />
<glyph unicode="&#xe9;" horiz-adv-x="770" d="M123 0v963h569v-185h-373v-184h353v-180h-353v-230h381v-184h-577zM309 1079l195 267h201l-252 -267h-144z" />
<glyph unicode="&#xea;" horiz-adv-x="770" d="M123 0v963h569v-185h-373v-184h353v-180h-353v-230h381v-184h-577zM215 1053v159l205 123l203 -123v-159l-203 123z" />
<glyph unicode="&#xeb;" horiz-adv-x="770" d="M121 1180q0 41 28.5 70.5t69.5 29.5q39 0 68.5 -29.5t29.5 -70.5t-28.5 -71t-69.5 -30t-69.5 30t-28.5 71zM123 0v963h569v-185h-373v-184h353v-180h-353v-230h381v-184h-577zM504 1180q0 41 28.5 70.5t69.5 29.5q39 0 68.5 -29.5t29.5 -70.5t-28.5 -71t-69.5 -30 t-69.5 30t-28.5 71z" />
<glyph unicode="&#xec;" horiz-adv-x="442" d="M-41 1346h201l194 -267h-143zM123 0v963h196v-963h-196z" />
<glyph unicode="&#xed;" horiz-adv-x="442" d="M94 1079l195 267h200l-251 -267h-144zM123 0v963h196v-963h-196z" />
<glyph unicode="&#xee;" horiz-adv-x="442" d="M20 1053v159l205 123l203 -123v-159l-203 123zM123 0v963h196v-963h-196z" />
<glyph unicode="&#xef;" horiz-adv-x="442" d="M-68 1180q0 41 29 70.5t70 29.5q39 0 68.5 -29.5t29.5 -70.5t-28.5 -71t-69.5 -30t-70 30t-29 71zM123 0v963h196v-963h-196zM315 1180q0 41 29 70.5t70 29.5q39 0 68.5 -29.5t29.5 -70.5t-28.5 -71t-69.5 -30t-70 30t-29 71z" />
<glyph unicode="&#xf0;" horiz-adv-x="1071" d="M25 449v129h98v385h438q195 0 331 -140.5t136 -339.5q0 -201 -135 -342t-332 -141h-438v449h-98zM319 184h189q131 0 215 86t84 213t-84 213t-215 86h-189v-204h224v-129h-224v-265z" />
<glyph unicode="&#xf1;" horiz-adv-x="1021" d="M123 0v963h172l420 -492v492h184v-988l-592 711v-686h-184zM231 1155q49 137 197 137q39 0 100.5 -20.5t89.5 -20.5q63 0 95 64l102 -62q-49 -137 -197 -137q-33 0 -95 20.5t-95 20.5q-63 0 -94 -63z" />
<glyph unicode="&#xf2;" d="M43 477q0 211 150.5 359.5t359.5 148.5q211 0 361.5 -148.5t150.5 -359.5q0 -209 -150.5 -357.5t-361.5 -148.5q-209 0 -359.5 148.5t-150.5 357.5zM250 477q0 -131 88 -223t215 -92q129 0 217 92t88 223t-88 224.5t-217 93.5t-216 -93.5t-87 -224.5zM307 1346h201 l194 -267h-143z" />
<glyph unicode="&#xf3;" d="M43 477q0 211 150.5 359.5t359.5 148.5q211 0 361.5 -148.5t150.5 -359.5q0 -209 -150.5 -357.5t-361.5 -148.5q-209 0 -359.5 148.5t-150.5 357.5zM250 477q0 -131 88 -223t215 -92q129 0 217 92t88 223t-88 224.5t-217 93.5t-216 -93.5t-87 -224.5zM422 1079l194 267 h201l-252 -267h-143z" />
<glyph unicode="&#xf4;" d="M43 477q0 211 150.5 359.5t359.5 148.5q211 0 361.5 -148.5t150.5 -359.5q0 -209 -150.5 -357.5t-361.5 -148.5q-209 0 -359.5 148.5t-150.5 357.5zM250 477q0 -131 88 -223t215 -92q129 0 217 92t88 223t-88 224.5t-217 93.5t-216 -93.5t-87 -224.5zM350 1053v159 l205 123l203 -123v-159l-203 123z" />
<glyph unicode="&#xf5;" d="M43 477q0 211 150.5 359.5t359.5 148.5q211 0 361.5 -148.5t150.5 -359.5q0 -209 -150.5 -357.5t-361.5 -148.5q-209 0 -359.5 148.5t-150.5 357.5zM250 477q0 -131 88 -223t215 -92q129 0 217 92t88 223t-88 224.5t-217 93.5t-216 -93.5t-87 -224.5zM262 1155 q49 137 197 137q39 0 100.5 -20.5t89.5 -20.5q63 0 94 64l103 -62q-49 -137 -197 -137q-33 0 -95 20.5t-95 20.5q-63 0 -94 -63z" />
<glyph unicode="&#xf6;" d="M43 477q0 211 150.5 359.5t359.5 148.5q211 0 361.5 -148.5t150.5 -359.5q0 -209 -150.5 -357.5t-361.5 -148.5q-209 0 -359.5 148.5t-150.5 357.5zM250 477q0 -131 88 -223t215 -92q129 0 217 92t88 223t-88 224.5t-217 93.5t-216 -93.5t-87 -224.5zM264 1180 q0 41 29 70.5t69 29.5q39 0 69 -29.5t30 -70.5t-29 -71t-69.5 -30t-69.5 30t-29 71zM647 1180q0 41 29 70.5t69 29.5q39 0 69 -29.5t30 -70.5t-29 -71t-69.5 -30t-69.5 30t-29 71z" />
<glyph unicode="&#xf7;" horiz-adv-x="1048" d="M0 442v176h1049v-176h-1049zM391 184q0 55 40 96.5t95.5 41.5t95.5 -41t40 -97q0 -57 -40 -97t-96 -40q-57 0 -96 40t-39 97zM391 877q0 55 40 96t95.5 41t95.5 -41t40 -96q0 -57 -40 -97.5t-96 -40.5q-57 0 -96 40.5t-39 97.5z" />
<glyph unicode="&#xf8;" d="M43 0l131 139q-131 143 -131 338q0 211 150.5 359.5t359.5 148.5q178 0 315 -108l129 135l68 -70l-125 -133q125 -141 125 -332q0 -209 -150.5 -357.5t-361.5 -148.5q-168 0 -307 103l-137 -144zM250 477q0 -109 61 -192l424 448q-80 61 -182 62q-129 0 -216 -93.5 t-87 -224.5zM379 217q78 -55 174 -55q129 0 217 92t88 223q0 104 -57 187z" />
<glyph unicode="&#xf9;" horiz-adv-x="913" d="M123 317v646h196v-654q0 -61 43.5 -104t104.5 -43t104 43t43 104v654h197v-646q0 -143 -100.5 -243.5t-243.5 -100.5t-243.5 100.5t-100.5 243.5zM238 1346h200l195 -267h-144z" />
<glyph unicode="&#xfa;" horiz-adv-x="913" d="M123 317v646h196v-654q0 -61 43.5 -104t104.5 -43t104 43t43 104v654h197v-646q0 -143 -100.5 -243.5t-243.5 -100.5t-243.5 100.5t-100.5 243.5zM338 1079l194 267h201l-252 -267h-143z" />
<glyph unicode="&#xfb;" horiz-adv-x="913" d="M123 317v646h196v-654q0 -61 43.5 -104t104.5 -43t104 43t43 104v654h197v-646q0 -143 -100.5 -243.5t-243.5 -100.5t-243.5 100.5t-100.5 243.5zM262 1053v159l205 123l203 -123v-159l-203 123z" />
<glyph unicode="&#xfc;" horiz-adv-x="913" d="M123 317v646h196v-654q0 -61 43.5 -104t104.5 -43t104 43t43 104v654h197v-646q0 -143 -100.5 -243.5t-243.5 -100.5t-243.5 100.5t-100.5 243.5zM184 1180q0 41 29 70.5t70 29.5q39 0 68.5 -29.5t29.5 -70.5t-28.5 -71t-69.5 -30t-70 30t-29 71zM567 1180q0 41 29 70.5 t70 29.5q39 0 68.5 -29.5t29.5 -70.5t-28.5 -71t-69.5 -30t-70 30t-29 71z" />
<glyph unicode="&#xfd;" horiz-adv-x="884" d="M29 963h219l194 -383l195 383h219l-315 -557v-406h-197v406zM328 1079l194 267h201l-252 -267h-143z" />
<glyph unicode="&#xfe;" horiz-adv-x="903" d="M123 0v963h196v-117h228q131 0 224 -94.5t93 -225.5q0 -135 -93 -233t-224 -98h-228v-195h-196zM319 375h191q59 0 102 43t43 102.5t-43 102.5t-102 43h-191v-291z" />
<glyph unicode="&#xff;" horiz-adv-x="884" d="M29 963h219l194 -383l195 383h219l-315 -557v-406h-197v406zM154 1180q0 41 28.5 70.5t69.5 29.5q39 0 68.5 -29.5t29.5 -70.5t-28.5 -71t-69.5 -30t-69.5 30t-28.5 71zM537 1180q0 41 28.5 70.5t69.5 29.5q39 0 68.5 -29.5t29.5 -70.5t-28.5 -71t-69.5 -30t-69.5 30 t-28.5 71z" />
<glyph unicode="&#x152;" horiz-adv-x="2080" d="M66 715q0 309 215 526t520 217q100 0 188 -24h985v-201h-645q141 -147 187 -346h430v-197h-412q-10 -285 -201 -485h654v-205h-990q-102 -27 -196 -27q-305 0 -520 217.5t-215 524.5zM291 715q0 -221 149.5 -379t360.5 -158t360.5 158t149.5 379q0 223 -149.5 380.5 t-360.5 157.5t-360.5 -157.5t-149.5 -380.5z" />
<glyph unicode="&#x153;" horiz-adv-x="1505" d="M43 477q0 211 150.5 359.5t359.5 148.5q76 0 149 -22h725v-185h-462q61 -82 86 -184h356v-180h-346q-18 -131 -92 -230h467v-184h-715q-82 -29 -168 -29q-209 0 -359.5 148.5t-150.5 357.5zM250 477q0 -131 88 -223t215 -92q129 0 217 92t88 223t-88 224.5t-217 93.5 t-216 -93.5t-87 -224.5z" />
<glyph unicode="&#x178;" horiz-adv-x="1163" d="M35 1434h231l316 -623l315 623h231l-442 -830v-604h-209v604zM293 1636q0 41 28.5 71t69.5 30q39 0 68.5 -30t29.5 -71t-28.5 -70.5t-69.5 -29.5t-69.5 29.5t-28.5 70.5zM676 1636q0 41 28.5 71t69.5 30q39 0 68.5 -30t29.5 -71t-28.5 -70.5t-69.5 -29.5t-69.5 29.5 t-28.5 70.5z" />
<glyph unicode="&#x2c6;" horiz-adv-x="741" d="M166 1053v159l205 123l202 -123v-159l-202 123z" />
<glyph unicode="&#x2dc;" horiz-adv-x="735" d="M72 1155q49 137 196 137q39 0 100.5 -20.5t90.5 -20.5q63 0 94 64l102 -62q-49 -137 -196 -137q-33 0 -95.5 20.5t-95.5 20.5q-63 0 -94 -63z" />
<glyph unicode="&#x2000;" horiz-adv-x="966" />
<glyph unicode="&#x2001;" horiz-adv-x="1935" />
<glyph unicode="&#x2002;" horiz-adv-x="966" />
<glyph unicode="&#x2003;" horiz-adv-x="1935" />
<glyph unicode="&#x2004;" horiz-adv-x="645" />
<glyph unicode="&#x2005;" horiz-adv-x="483" />
<glyph unicode="&#x2006;" horiz-adv-x="321" />
<glyph unicode="&#x2007;" horiz-adv-x="321" />
<glyph unicode="&#x2008;" horiz-adv-x="241" />
<glyph unicode="&#x2009;" horiz-adv-x="387" />
<glyph unicode="&#x200a;" horiz-adv-x="106" />
<glyph unicode="&#x2010;" horiz-adv-x="759" d="M106 412v180h545v-180h-545z" />
<glyph unicode="&#x2011;" horiz-adv-x="759" d="M106 412v180h545v-180h-545z" />
<glyph unicode="&#x2012;" horiz-adv-x="759" d="M106 412v180h545v-180h-545z" />
<glyph unicode="&#x2013;" horiz-adv-x="1310" d="M154 430v143h1003v-143h-1003z" />
<glyph unicode="&#x2014;" horiz-adv-x="2316" d="M154 430v143h2007v-143h-2007z" />
<glyph unicode="&#x2018;" horiz-adv-x="538" d="M88 1434h227l136 -439h-127z" />
<glyph unicode="&#x2019;" horiz-adv-x="538" d="M88 995l135 439h228l-236 -439h-127z" />
<glyph unicode="&#x201a;" horiz-adv-x="538" d="M88 -233l135 438h228l-236 -438h-127z" />
<glyph unicode="&#x201c;" horiz-adv-x="872" d="M88 1434h227l136 -439h-127zM422 1434h227l135 -439h-127z" />
<glyph unicode="&#x201d;" horiz-adv-x="872" d="M88 995l135 439h228l-236 -439h-127zM422 995l135 439h227l-235 -439h-127z" />
<glyph unicode="&#x201e;" horiz-adv-x="872" d="M88 -233l135 438h228l-236 -438h-127zM422 -233l135 438h227l-235 -438h-127z" />
<glyph unicode="&#x2022;" horiz-adv-x="792" d="M102 524q0 121 86 207t207 86t207 -86t86 -207t-86 -207t-207 -86t-207 86t-86 207z" />
<glyph unicode="&#x2026;" horiz-adv-x="1507" d="M100 111q0 55 40 96t95.5 41t95.5 -41t40 -96q0 -57 -40 -97.5t-95 -40.5q-57 0 -96.5 40.5t-39.5 97.5zM618 111q0 55 40 96t95.5 41t95.5 -41t40 -96q0 -57 -40 -97.5t-95 -40.5q-57 0 -96.5 40.5t-39.5 97.5zM1137 111q0 55 40 96t95 41t95 -41t40 -96 q0 -57 -40 -97.5t-95 -40.5q-57 0 -96 40.5t-39 97.5z" />
<glyph unicode="&#x202f;" horiz-adv-x="387" />
<glyph unicode="&#x2039;" horiz-adv-x="665" d="M88 514l311 424h176l-309 -424l309 -424h-176z" />
<glyph unicode="&#x203a;" horiz-adv-x="665" d="M88 90l309 424l-309 424h176l311 -424l-311 -424h-176z" />
<glyph unicode="&#x2044;" horiz-adv-x="643" d="M-59 -127l587 1751l174 -61l-587 -1751z" />
<glyph unicode="&#x205f;" horiz-adv-x="483" />
<glyph unicode="&#x20ac;" horiz-adv-x="1234" d="M51 485v144h84q-4 53 -4 131h-80v143h103q61 242 258.5 398.5t453.5 156.5q129 0 254 -45v-233q-119 74 -254 73q-166 0 -294 -92t-185 -258h512v-143h-541q-2 -18 -2 -45q0 -47 6 -86h537v-144h-493q51 -135 180 -221t280 -86q139 0 254 72v-232q-125 -45 -254 -45 q-242 0 -434 143.5t-266 368.5h-115z" />
<glyph unicode="&#x2122;" horiz-adv-x="1052" d="M68 1358v78h331v-78h-120v-420h-89v420h-122zM434 938l94 506l181 -344l180 344l94 -506h-84l-47 274l-143 -282l-144 282l-47 -274h-84z" />
<glyph unicode="&#xe000;" horiz-adv-x="965" d="M0 965h965v-965h-965v965z" />
<glyph unicode="&#xfb01;" horiz-adv-x="1212" d="M123 0v963h569v-185h-373v-205h353v-180h-353v-393h-196zM893 0v963h197v-963h-197z" />
<glyph unicode="&#xfb02;" horiz-adv-x="1519" d="M123 0v963h569v-185h-373v-205h353v-180h-353v-393h-196zM893 0v963h197v-779h393v-184h-590z" />
<glyph unicode="&#xfb03;" horiz-adv-x="1982" d="M1663 0v963h196v-963h-196zM893 0v963h569v-185h-373v-205h353v-180h-353v-393h-196zM123 0v963h569v-185h-373v-205h353v-180h-353v-393h-196z" />
<glyph unicode="&#xfb04;" horiz-adv-x="2310" d="M1663 0v963h196v-779h394v-184h-590zM893 0v963h569v-185h-373v-205h353v-180h-353v-393h-196zM123 0v963h569v-185h-373v-205h353v-180h-353v-393h-196z" />
</font>
</defs>
</svg>
